<?xml version="1.0" encoding="UTF-8" standalone="no"?>
<svg class="catgrad" width="668px" height="1184px" viewBox="0 0 668 1184" version="1.1" xmlns="http://www.w3.org/2000/svg" xmlns:xlink="http://www.w3.org/1999/xlink" xmlns:sketch="http://www.bohemiancoding.com/sketch/ns">
    <!-- Generator: Sketch 3.3.3 (12081) - http://www.bohemiancoding.com/sketch -->
    <title>Imported Layers</title>
    <desc>Created with Sketch.</desc>
    <defs>
        <linearGradient x1="50%" y1="0%" x2="50%" y2="100%" id="linearGradient-1">
            <stop stop-color="#FA8072" offset="0%"></stop>
            <stop stop-color="#F76B1C" offset="100%"></stop>
        </linearGradient>
        <path d="M345.415,767.212 C525.071,760.544 667.561,613.558 667.561,433.167 C667.561,166.007 536.956,0.942 536.956,0.942 C536.956,0.942 529.388,4.449 512.549,15.627 C500.505,23.621 460.815,53.058 460.815,53.058 C460.815,53.058 456.33,56.365 453.242,56.715 C449.942,57.088 447.366,56.114 446.165,55.563 C412.114,39.942 375,31.099 334,30.945 C293,31.099 256.331,39.942 222.28,55.563 C221.079,56.114 218.873,57.088 215.572,56.715 C212.485,56.365 208.003,53.058 208.003,53.058 C208.003,53.058 168.261,23.621 156.218,15.627 C139.378,4.449 131.68,0.942 131.68,0.942 C131.68,0.942 0.397,166.007 0.397,433.167 C0.397,613.859 143.401,761.038 322.537,767.249 C323.008,771.37 323.259,775.558 323.259,779.806 C323.259,819.324 274.871,892.998 274.871,892.998 C275.945,891.214 199.89,994.214 199.89,1054.714 C199.89,1127.329 258.385,1183.473 331,1183.473 C403.615,1183.473 462.482,1124.607 462.482,1051.992 C462.482,1040.487 462.304,1026.23 459.525,1015.596 C453.815,992.132 438.828,979.253 416.547,979.253 C393.499,979.253 375.976,988.916 374.815,1020.985 C373.867,1047.173 423.367,1119.858 345.778,1132.353 C286.203,1141.947 236.518,1083.649 236.518,1023.307 C236.518,966.561 307.388,900.224 339.377,809.214 C343.375,797.837 345.081,780.611 345.415,767.212 L345.415,767.212 Z M554.606,226.659 C556.588,221.15 561.235,213.439 564.168,209.964 C567.148,206.43 574.952,198.506 583.03,201.246 C590.123,203.654 592.743,214.722 593.674,221.105 C594.328,225.605 594.806,231.422 593.387,240.446 C593.231,241.432 592.381,242.135 591.414,242.136 C591.31,242.136 591.206,242.127 591.101,242.111 C590.01,241.939 589.264,240.916 589.435,239.825 C590.771,231.328 590.326,225.885 589.715,221.682 C588.682,214.591 586.045,206.494 581.745,205.034 C575.847,203.029 569.139,210.275 567.225,212.543 C564.518,215.752 560.155,223.05 558.369,228.013 C557.995,229.052 556.851,229.592 555.81,229.218 C554.771,228.844 554.231,227.698 554.606,226.659 L554.606,226.659 Z M493.948,146.427 C499.151,146.427 503.369,150.645 503.369,155.848 C503.369,161.051 499.151,165.268 493.948,165.268 C488.746,165.268 484.528,161.051 484.528,155.848 C484.528,150.645 488.746,146.427 493.948,146.427 L493.948,146.427 Z M115.531,229.145 C114.493,229.519 113.345,228.98 112.972,227.94 C111.185,222.977 106.822,215.679 104.115,212.47 C102.202,210.202 95.499,202.954 89.595,204.961 C85.294,206.421 82.658,214.518 81.626,221.609 C81.014,225.811 80.568,231.252 81.905,239.752 C82.077,240.843 81.331,241.867 80.24,242.038 C80.135,242.055 80.03,242.063 79.927,242.063 C78.959,242.063 78.108,241.359 77.954,240.373 C76.534,231.347 77.012,225.531 77.667,221.033 C78.597,214.65 81.215,203.581 88.31,201.173 C96.385,198.43 104.191,206.357 107.173,209.891 C110.104,213.366 114.751,221.076 116.735,226.585 C117.109,227.625 116.57,228.771 115.531,229.145 L115.531,229.145 Z M182.948,165.268 C177.746,165.268 173.528,161.051 173.528,155.848 C173.528,150.645 177.746,146.427 182.948,146.427 C188.151,146.427 192.369,150.645 192.369,155.848 C192.369,161.051 188.151,165.268 182.948,165.268 L182.948,165.268 Z M453.819,1039.751 C453.796,1039.906 453.768,1040.059 453.744,1040.214 C453.744,1040.214 453.74,1039.908 453.819,1039.751 L453.819,1039.751 Z M312.051,198.408 L312.935,198.451 C316.251,198.623 323.155,198.98 327.577,196.725 C329.84,195.57 330.887,194.581 331.727,192.806 C331.771,192.714 331.801,192.615 331.842,192.521 C329.994,191.613 328.8,189.707 327.597,188.065 C325.953,185.821 322.143,183.499 323.803,181.261 C325.452,179.038 330.885,179.087 334.174,179.087 C337.462,179.087 342.896,179.038 344.545,181.261 C346.205,183.499 342.395,185.821 340.75,188.065 C339.5,189.772 338.26,191.767 336.283,192.626 C336.309,192.685 336.328,192.748 336.355,192.806 C337.195,194.581 338.243,195.57 340.507,196.725 C344.927,198.981 351.831,198.625 355.147,198.451 L356.031,198.408 C356.589,198.396 357.049,198.812 357.073,199.364 C357.097,199.915 356.669,200.382 356.117,200.406 L355.251,200.449 C354.152,200.505 352.681,200.581 351.026,200.581 C347.423,200.581 342.954,200.22 339.598,198.506 C336.948,197.154 335.579,195.841 334.547,193.661 C334.453,193.461 334.381,193.254 334.298,193.051 C334.256,193.052 334.216,193.057 334.174,193.057 C334.042,193.057 333.917,193.046 333.79,193.037 C333.705,193.245 333.631,193.457 333.535,193.661 C332.503,195.841 331.135,197.154 328.486,198.506 C325.128,200.22 320.659,200.581 317.056,200.581 C315.401,200.581 313.93,200.505 312.832,200.449 L311.965,200.406 C311.414,200.382 310.985,199.915 311.009,199.364 C311.033,198.812 311.509,198.398 312.051,198.408 L312.051,198.408 Z" id="path-2"></path>
    </defs>
    <g id="Page-1" stroke="none" stroke-width="1" fill="none" fill-rule="evenodd" sketch:type="MSPage">
        <g id="Cat" sketch:type="MSArtboardGroup" transform="translate(-50.000000, -11.000000)">
            <g id="Imported-Layers" sketch:type="MSLayerGroup" transform="translate(50.000000, 11.000000)">
                <path d="M334,30.94 L334,30.943 C335,30.943 334,30.94 334,30.94" id="Fill-1" fill="#FA8072" sketch:type="MSShapeGroup"></path>
                <g id="Fill-2">
                    <use fill="none" sketch:type="MSShapeGroup" xlink:href="#path-2"></use>
                    <use fill="url(#linearGradient-1)" fill-rule="evenodd" xlink:href="#path-2"></use>
                </g>
            </g>
        </g>
    </g>
</svg>